<?xml version="1.0" encoding="utf-8"?>
<!-- Generator: Adobe Illustrator 23.0.3, SVG Export Plug-In . SVG Version: 6.00 Build 0)  -->
<svg version="1.1" id="Capa_1" xmlns="http://www.w3.org/2000/svg" xmlns:xlink="http://www.w3.org/1999/xlink" x="0px" y="0px"
	 viewBox="0 0 1200 1200" enable-background="new 0 0 1200 1200" xml:space="preserve">
<g>
	<path fill="#B6C594" d="M474.492,631.102c-17.9-15.598-26.695-33.415-26.099-53.012c1.124-36.897,35.407-68.581,48.719-79.525
		c-0.636-0.773-1.268-1.56-1.9-2.321c-2.965-3.575-6.022-7.263-8.706-11.174c-14.499,12.004-53.702,48.568-54.458,93.478
		c-0.467,27.719,13.832,54.306,42.442,79.179V631.102z"/>
	<path fill="#91C3DC" d="M696.812,1137.485c8.922,0,16.182-7.257,16.182-16.179v-11.754c-14.735,10.955-32.262,20.746-46.447,27.932
		H696.812z"/>
	<path fill="#7D8C62" d="M396.389,345.225c-0.264,2.435-1.926,4.493-4.253,5.263c-0.891,0.295-1.755,0.59-2.596,0.883
		c11.04,0.142,23.683,0.979,35.16,3.378c2.513,0.524,4.452,2.533,4.887,5.064c0.435,2.531-0.721,5.072-2.916,6.407
		c-5.918,3.599-10.625,7.156-14.207,10.207c16.646,1.822,45.349,6.598,69.004,18.747c0.961-2.278,2.04-4.599,3.361-7.001
		c0.853-1.551,1.592-2.985,2.356-4.444c-49.367-34.686-92.795-52.922-118.909-61.796c6.884,5.399,15.323,11.427,25.091,17.234
		C395.473,340.422,396.654,342.788,396.389,345.225z"/>
	<path fill="#91C3DC" d="M480.513,473.771c-3.407-9.294-3.293-20.015,4.803-33.236c-5.498-6.606-10.385-18.031-7.573-33.198
		c-32.542-17.604-78.947-19.476-79.432-19.494c-2.322-0.082-4.408-1.447-5.416-3.541c-1.007-2.096-0.77-4.576,0.616-6.443
		c0.241-0.324,4.443-5.903,13.391-13.074c-22.531-2.101-45.241,0.138-45.521,0.167c-2.832,0.277-5.517-1.384-6.502-4.064
		c-0.987-2.68-0.035-5.686,2.315-7.31c4.597-3.176,10.347-6.76,18.985-10.453c-11.475-7.652-20.618-15.114-26.971-20.748H246.772
		c-8.922,0-16.18,7.258-16.18,16.18v43.043h87.548c3.456,0,6.258,2.802,6.258,6.258s-2.802,6.258-6.258,6.258h-39.85l5.437,10.992
		h50.744c3.456,0,6.258,2.802,6.258,6.258c0,3.456-2.802,6.258-6.258,6.258h-54.631c-2.38,0-4.554-1.351-5.608-3.483l-9.904-20.024
		h-33.737v75.129h44.745c3.456,0,6.258,2.802,6.258,6.258c0,3.456-2.802,6.258-6.258,6.258h-44.745v19.691
		c0,8.922,7.258,16.18,16.18,16.18H440.04C454.468,495.71,472.538,480.097,480.513,473.771z M374.915,467.081
		c0-3.456,2.802-6.258,6.258-6.258h60.222c3.456,0,6.258,2.802,6.258,6.258c0,3.456-2.802,6.258-6.258,6.258h-60.222
		C377.717,473.339,374.915,470.537,374.915,467.081z"/>
	<path fill="#7D8C62" d="M608.675,887.728c-11.113,1.548-26.463,2.544-41.105-0.143c-5.152,3.092-10.239,6.243-15.268,9.441
		c46.376,21.67,85.619,31.288,110.068,35.523c-7.625-4.197-16.857-8.754-27.342-12.888c-2.279-0.898-3.826-3.043-3.954-5.491
		c-0.128-2.447,1.182-4.745,3.355-5.879c0.834-0.434,1.641-0.865,2.423-1.289c-10.92,1.632-23.53,2.836-35.248,2.304
		c-2.567-0.116-4.802-1.787-5.636-4.217c-0.836-2.429-0.102-5.121,1.85-6.792C602.263,894.499,605.845,890.894,608.675,887.728z"/>
	<path fill="#7D8C62" d="M529.508,912.211c16.933,18.582,38.366,27.792,51.215,31.928c-0.746-2.667-1.355-5.552-1.6-8.418
		c-0.222-2.594,1.187-5.054,3.537-6.178c2.353-1.131,5.15-0.675,7.029,1.13c12.274,11.773,24.707,18.409,34.054,22.1
		c-1.451-2.936-2.649-6.087-3.233-9.234c-0.391-2.114,0.33-4.284,1.913-5.741c0.436-0.402,0.926-0.718,1.441-0.977
		c-23.479-6.401-52.103-16.358-83.871-31.8C536.534,907.329,533.03,909.734,529.508,912.211z"/>
	<path fill="#91C3DC" d="M712.994,1054.573V803.455c-28.218,19.053-58.202,35.451-87.622,51.522
		c-12.992,7.097-26.203,14.314-39.277,21.775c18.619,0.141,35.221-4.128,35.439-4.188c2.386-0.629,4.932,0.214,6.478,2.145
		c1.543,1.931,1.809,4.589,0.672,6.783c-0.186,0.361-3.44,6.545-11.122,15.057c22.595-1.537,44.632-7.391,44.904-7.465
		c2.753-0.742,5.668,0.48,7.07,2.967c1.406,2.487,0.947,5.61-1.112,7.59c-4.03,3.871-9.133,8.332-17.065,13.362
		c25.089,11.418,40.864,23.582,41.616,24.166c1.738,1.74,2.703,3.683,2.215,6.127c-0.444,2.224-2.04,4.123-4.226,4.796
		c-1.132,0.349-24.995,7.474-53.865,2.918c2.258,3.615,4.791,6.737,6.114,8.195c1.754,1.928,2.13,4.748,0.938,7.067
		c-1.079,2.105-3.239,3.404-5.564,3.404c-0.238,0-0.477-0.012-0.718-0.043c-0.953-0.11-19.344-2.405-40.724-16.875
		c0.122,1.476-0.28,2.976-1.184,4.214c-1.399,1.91-3.764,2.866-6.09,2.478c-1.764-0.298-41.759-7.371-70.538-39.821
		c-11.472,8.645-22.662,18.239-32.325,28.915v172.761c0,8.922,7.26,16.179,16.182,16.179h28.197
		C541.956,1134.857,669.915,1102.253,712.994,1054.573z M535.864,1087.604c0,3.456-2.802,6.258-6.258,6.258
		s-6.258-2.802-6.258-6.258V976.237c0-3.456,2.802-6.258,6.258-6.258s6.258,2.802,6.258,6.258V1087.604z M593.47,1048.466
		c0,3.456-2.802,6.258-6.258,6.258c-3.456,0-6.258-2.802-6.258-6.258v-32.455c0-3.456,2.802-6.258,6.258-6.258
		c3.456,0,6.258,2.802,6.258,6.258V1048.466z M678.079,1048.466c0,3.456-2.802,6.258-6.258,6.258c-3.456,0-6.258-2.802-6.258-6.258
		v-51.98c0-3.456,2.802-6.258,6.258-6.258c3.456,0,6.258,2.802,6.258,6.258V1048.466z"/>
	<path fill="#7D8C62" d="M496.238,364.817c0.251-0.562,0.493-1.101,0.738-1.647c-13.669-17.262-33.531-30.742-45.951-38.147
		c0.212,2.365,0.281,4.84,0.098,7.257c-0.197,2.597-1.981,4.8-4.481,5.532c-2.504,0.73-5.19-0.16-6.757-2.243
		c-10.228-13.586-21.433-22.129-30.069-27.27c0.962,3.129,1.639,6.427,1.71,9.626c0.047,2.151-1.013,4.174-2.806,5.359
		c-0.364,0.24-0.757,0.409-1.153,0.566c23.957,10.667,53.266,26.216,85.232,48.525C494.055,369.667,495.218,367.102,496.238,364.817
		z"/>
	<path fill="#D65543" d="M652.84,366.221c-10.098,1.98-30.381,4.039-31.245,4.126c-3.144,0.316-6.041-1.762-6.734-4.852
		c-0.229-0.767-3.104-8.804-21.222-3.595c-10.361,2.978-17.989,3.375-23.558,3.664c-8.441,0.438-10.709,0.556-15.279,8.112
		c-1.3,2.15-3.761,3.315-6.241,2.956c-0.124-0.014-0.411-0.04-0.828-0.04c-2.336,0-8.717,0.797-12.711,8.954
		c-7.014,14.315-9.683,27.021-6.966,33.16c0.941,2.127,2.524,3.413,5.135,4.169c1.676,0.486,3.071,1.65,3.853,3.211
		c0.781,1.56,0.874,3.376,0.258,5.008c-0.07,0.188-7.096,19.001-9.683,40.58c-1.937,16.147,30.648,21.335,30.978,21.382
		c1.965,0.286,3.677,1.486,4.615,3.234c0.043,0.078,5.173,9.383,14.987,16.669c0.299,0.223,0.376,0.237,0.736,0.147
		c4.635-1.112,12.433-12.419,16.278-20.156c1.132-2.273,3.517-3.633,6.059-3.454c2.534,0.185,4.704,1.884,5.494,4.298
		c1.179,3.569,5.903,14.236,11.868,16.231c1.326,0.443,3.502,0.744,7.064-1.723c9.857-6.826,19.794-10.9,27.778-14.176
		c4.904-2.01,11.617-4.764,12.628-6.407c0.538-0.875,1.155-1.798,1.812-2.773c4.223-6.27,8.219-12.202,1.705-22.945
		c-3.611-2.123-13.657-5.721-24.335-9.047c0.234,3.641-0.422,7.3-3.003,9.966c-2.408,2.489-5.659,3.465-9.649,2.924
		c-6.56,13.058-11.901,14.715-14.776,14.715c-0.611,0-1.109-0.073-1.485-0.13c-2.765-0.414-4.657-1.936-5.966-3.873
		c-3.445,1.879-7.257,2.655-10.636,0.851c-2.965-1.584-4.524-4.322-4.666-8.177c-2.565-0.02-4.858-0.749-6.687-2.898
		c-1.021-1.198-1.568-2.515-1.803-3.841c-3.679-0.645-7.307-2.339-9.177-5.972c-0.912-1.774-1.476-4.139-0.678-7
		c-5.054-1.841-9.243-4.773-9.86-9.438c-0.553-4.186,1.922-7.266,4.747-9.403c-1.398-3.251-2.18-7.231-0.403-10.952
		c0.721-1.512,1.966-3.172,4.108-4.44c-1.237-3.619-1.728-7.909,0.498-11.658c1.442-2.426,4.265-4.999,9.79-5.394
		c0.767-3.534,2.377-7.538,6.501-9.817c3.673-2.03,8.23-2.043,13.863-0.027c4.067-2.701,9.555-5.702,14.899-2.924
		c2.784,1.447,4.311,3.916,5.152,6.421c3.364-0.28,7.018,0.29,9.68,3.274c2.493,2.796,2.793,6.369,2.337,9.559
		c2.38,1.156,4.544,2.933,6.013,5.368c1.384,2.299,2.933,6.551,0.84,12.421c3.233,2.434,6.087,5.974,6.536,10.431
		c0.233,2.309-0.142,5.172-2.101,8.175c7.634,2.379,17.183,5.587,23.502,8.548c5.057-6.146,14.474-19.749,12.873-34.182
		C683.478,395.155,659.501,367.362,652.84,366.221z"/>
	<path fill="#7D8C62" d="M503.043,350.896c2.276-3.88,4.887-7.343,8.39-10.574c-11.491-45.537-31.206-82.287-46.301-105.751
		c2.392,6.346,5.275,13.226,8.78,20.386c1.077,2.201,0.772,4.828-0.784,6.722c-1.552,1.896-4.068,2.706-6.441,2.078
		c-6.125-1.622-11.226-2.626-15.624-3.23c7.257,7.688,17.43,18.319,27.833,28.716c1.818,1.815,2.341,4.557,1.318,6.915
		c-1.021,2.357-3.369,3.836-5.946,3.766c-11.985-0.393-22.542-1.207-29.317-1.824c0.503,2.903,1.317,6.545,2.542,10.577
		C455.842,313.025,483.322,328.338,503.043,350.896z"/>
	<path fill="#7D8C62" d="M522.885,332.335c-0.767-34.878-11.927-69.986-19.86-90.691c-0.64,2.024-1.358,3.842-2.159,5.252
		c-1.083,1.91-3.089,3.112-5.284,3.167c-2.194,0.075-4.259-1.045-5.437-2.898c-3.484-5.478-7.382-10.359-11.371-14.683
		c14.603,23.426,32.302,57.742,43.606,100.122C522.541,332.514,522.72,332.425,522.885,332.335z"/>
	<path fill="#B34539" d="M704.661,483.752c2.836-7.816,3.419-13.843,4.097-20.823c0.898-9.247,1.913-19.729,8.027-36.626
		c7.957-21.995-3.062-32.462-11.913-40.872c-1.237-1.176-2.38-2.264-3.358-3.279c-3.208-3.327-6.652-7.918-10.642-13.235
		c-5.484-7.31-12.119-16.12-20.615-25.043c-3.464,4.868-6.463,9.314-8.708,12.728c0.818,0.498,1.648,1.037,2.506,1.664
		c12.689,9.28,31.808,35.011,34.118,55.836c2.188,19.728-10.105,36.996-16.258,44.271c8.164,16.072,0.602,27.302-3.615,33.565
		c-0.553,0.82-1.079,1.593-1.531,2.331c-1.936,3.153-5.134,5.367-9.382,7.458c0.215,3.28,0.362,7.446,0.228,11.912
		C682.818,505.689,701.099,493.564,704.661,483.752z"/>
	<path fill="#B34539" d="M593.328,329.592c-1.699,0.71-3.63,0.64-5.268-0.2c-31.25-15.982-53.124,9.614-54.041,10.713
		c-0.055,0.066-0.126,0.115-0.183,0.178c-0.163,0.18-0.337,0.345-0.52,0.504c-0.136,0.118-0.269,0.235-0.415,0.342
		c-0.202,0.148-0.416,0.274-0.635,0.398c-0.104,0.059-0.196,0.137-0.304,0.19c-14.967,7.312-17.699,13.429-24.297,28.204
		c-2.863,6.413-6.427,14.396-11.871,24.288c-14.915,27.108,0.752,40.029,1.425,40.565c2.611,2.079,3.187,5.882,1.239,8.592
		c-8.879,12.353-9.075,20.865-4.978,29.135c0.181,0.293,0.349,0.589,0.477,0.898c2.539,4.76,6.431,9.483,10.888,14.858
		c1.936,2.334,3.89,4.76,5.813,7.246c0.115,0.133,0.245,0.246,0.35,0.391c0.077,0.105,0.124,0.222,0.193,0.33
		c0.839,1.101,1.696,2.176,2.502,3.321c2.655,3.778,4.822,7.073,6.759,10.02c8.077,12.295,11.421,17.384,31.18,27.231
		c15.526,7.737,23.049,4.072,25.835,1.773c-0.596-4.592-1.148-9.503-1.546-13.208c-1.83-0.39-3.582-1.154-5.192-2.35
		c-8.687-6.447-14.307-14.064-16.898-18.058c-16.822-3.135-41.214-13.388-38.651-34.768c1.933-16.122,6.07-30.497,8.506-38.013
		c-3.13-2.055-5.536-4.892-7.089-8.401c-5.883-13.299,1.968-33.105,7.173-43.729c6.248-12.76,16.52-15.432,22.291-15.863
		c7.356-10.282,14.824-10.668,23.358-11.113c5.242-0.272,11.765-0.611,20.751-3.195c11.521-3.309,20.889-2.907,27.828,1.205
		c3.193,1.891,5.304,4.252,6.676,6.357c5.863-0.642,16.363-1.861,23.39-3.066c2.275-3.569,6.965-10.771,12.904-19.041
		C643.471,322.847,612.236,321.669,593.328,329.592z"/>
	<path fill="#615C5D" d="M632.882,438.67c1.668-1.169,3.564-1.904,5.077-3.314c0.158-0.147,1.161-1.013,1.055-1.315
		c-0.22-0.629-2.509-2.447-4.195-2.919c-1.956-0.547-3.526-2.01-4.207-3.926c-0.681-1.914-0.391-4.041,0.779-5.703
		c2.014-2.861,2.2-4.563,1.974-4.941c-0.348-0.577-1.754-1.024-2.38-0.958c-2.215,0.281-4.412-0.645-5.763-2.414
		c-1.354-1.772-1.668-4.128-0.816-6.187c0.385-0.932,0.66-1.703,0.859-2.333c-0.871,0.202-1.723,0.446-2.2,0.582l-0.535,0.153
		c-1.885,0.519-3.887,0.148-5.448-1.019c-1.558-1.169-2.481-2.996-2.502-4.942c-0.006-0.628-0.034-1.161-0.07-1.612
		c-1.082,0.64-2.27,1.457-3.004,1.962l-1.302,0.885c-1.812,1.205-4.119,1.383-6.09,0.469c-3.534-1.632-5.211-1.752-5.812-1.736
		c-0.435,0.895-0.727,3.162-0.874,4.304c-0.099,0.767-0.194,1.494-0.307,2.151c-0.28,1.638-1.199,3.097-2.557,4.056
		c-1.36,0.958-3.04,1.337-4.678,1.054c-1.296-0.225-2.224-0.28-2.874-0.284c0.417,1.479,1.459,3.628,2.444,4.872
		c1.491,1.881,1.775,4.45,0.729,6.612c-1.045,2.16-3.234,3.532-5.633,3.532c-0.565,0-1.011,0.023-1.376,0.057
		c0.492,1.085,1.311,2.432,1.997,3.276c1.227,1.516,1.679,3.515,1.222,5.41c-0.411,1.7-1.511,3.141-3.02,3.989
		c1.438,0.39,2.999,0.733,4.444,0.956c2.371,0.365,4.325,2.055,5.029,4.349s0.034,4.789-1.726,6.421
		c-0.057,0.053-0.112,0.104-0.165,0.156c0.576-0.015,1.173-0.075,1.743-0.193c2.266-0.464,4.605,0.359,6.08,2.145
		c0.84,1.016,1.321,2.247,1.416,3.515c0.083-0.018,1.166-0.273,1.166-0.273c2.212-0.513,4.53,0.208,6.058,1.89
		c1.007,1.111,1.566,2.525,1.618,3.978c1.192-1.268,2.849-1.969,4.557-1.969c0.559,0,1.124,0.075,1.68,0.229
		c2.007,0.561,3.575,2.07,4.235,3.987c1.347-2.263,2.777-5.026,3.926-7.677c1.347-3.114,4.922-4.591,8.076-3.323
		c0.455,0.183,0.856,0.327,1.201,0.438c-0.284-1.882-1.054-4.56-2.011-6.748C629.527,443.617,630.49,440.345,632.882,438.67z
		 M610.135,449.298c-9.061,0-16.432-8.461-16.432-18.86s7.371-18.86,16.432-18.86c9.061,0,16.434,8.461,16.434,18.86
		S619.196,449.298,610.135,449.298z"/>
	<path fill="#4D4849" d="M610.135,424.094c-1.849,0-3.917,2.713-3.917,6.345c0,3.631,2.069,6.345,3.917,6.345
		c1.85,0,3.919-2.713,3.919-6.345C614.054,426.807,611.985,424.094,610.135,424.094z"/>
	<path fill="#B34539" d="M614.628,521.883c-6.401-2.154-11.142-7.604-14.379-12.806c-3.199,4.737-7.386,9.859-12.064,13.138
		c0.465,4.417,1.263,11.675,2.077,17.526c1.598,2.883,16.028,6.262,22.191,7.704c4.299,1.007,8.36,1.959,11.611,3.029
		c5.087,1.679,12.659-5.491,18.745-11.247c2.744-2.593,5.335-5.043,7.957-7.063c1.548-1.191,2.67-4.575,3.387-9.043
		c0.009-0.054,0.014-0.107,0.024-0.16c0.72-4.575,1.016-10.259,0.892-15.954c-6.797,2.828-14.707,6.361-22.245,11.581
		C625.261,523.826,618.756,523.273,614.628,521.883z"/>
	<path fill="#7D8C62" d="M600.405,765.188c-6.261,2.044-11.418,4.281-15.481,6.325c14.394,4.659,37.158,13.922,55.958,30.107
		c3.304-1.909,6.654-3.853,10.036-5.832c-34.73-43.172-72.889-71.374-96.859-86.556c5.402,6.707,12.116,14.321,20.098,22.013
		c1.765,1.702,2.374,4.275,1.56,6.585c-0.813,2.313-2.901,3.935-5.343,4.155c-0.935,0.083-1.844,0.171-2.73,0.266
		c10.716,2.661,22.835,6.362,33.461,11.318c2.328,1.085,3.757,3.483,3.602,6.047C604.551,762.178,602.846,764.387,600.405,765.188z"
		/>
	<path fill="#91C3DC" d="M953.229,322.376H741.688c-15.821,0-28.694-12.873-28.694-28.696V78.696c0-8.922-7.26-16.18-16.182-16.18
		h-52.286v88.623c0,3.456-2.802,6.258-6.258,6.258s-6.258-2.802-6.258-6.258V62.515H503.19c-8.922,0-16.182,7.258-16.182,16.18
		v144.242c2.027,2.154,4.044,4.418,6.012,6.847c0.671-3.566,1.222-7.304,1.555-10.242c0.313-2.765,2.415-4.991,5.158-5.462
		c2.742-0.471,5.466,0.923,6.685,3.425c1.095,2.248,24.879,51.69,28.562,105.076c12.917-9.074,33.224-16.103,56.194-5.587
		c24.801-9.096,62.894-6.349,82.691,12.734c11.748,11.324,20.215,22.609,27.02,31.678c3.737,4.983,6.967,9.287,9.637,12.057
		c0.865,0.895,1.876,1.853,2.97,2.894c9.02,8.566,25.804,24.513,15.064,54.201c-5.576,15.417-6.475,24.65-7.339,33.578
		c-0.727,7.498-1.415,14.581-4.791,23.883c-6.754,18.614-39.853,35.422-50.61,40.469c-1.372,5.688-3.656,10.699-7.414,13.592
		c-2.117,1.633-4.485,3.873-6.994,6.242c-7.168,6.777-15.815,14.952-25.642,14.954c-1.833,0-3.706-0.284-5.619-0.915
		c-2.726-0.898-6.527-1.787-10.548-2.73c-10.146-2.375-20.521-4.809-26.568-9.655c-3.378,2.169-8.192,4.082-14.699,4.082
		c-5.954,0-13.314-1.6-22.27-6.062c-22.782-11.353-27.496-18.53-36.058-31.56c-1.554-2.365-3.278-4.981-5.282-7.884
		c-5.267,4.392-13.981,12.236-22.271,22.247c2.964,4.593,4.557,9.948,4.557,15.526v349.078
		c32.576-28.436,79.948-53.671,116.123-72.925c10.208-5.433,19.023-10.126,26.045-14.135c0.036-0.02,0.073-0.042,0.109-0.062
		c-26.577-21.021-60.692-28.354-61.063-28.43c-2.341-0.489-4.2-2.27-4.786-4.592c-0.587-2.319,0.2-4.77,2.027-6.313
		c0.309-0.26,5.674-4.736,16.025-9.674c-21.473-7.196-44.077-10.193-44.355-10.23c-2.832-0.367-5.057-2.606-5.405-5.442
		c-0.35-2.832,1.265-5.546,3.923-6.588c5.199-2.044,11.617-4.22,20.871-5.842c-18.837-20.13-28.777-37.387-29.249-38.215
		c-0.77-1.352-0.984-3.289-0.573-4.772c0.787-2.842,3.662-4.823,6.599-4.559c1.179,0.113,25.958,2.625,50.917,17.859
		c-0.707-4.207-1.864-8.057-2.535-9.903c-0.892-2.454-0.168-5.204,1.818-6.899c1.982-1.69,4.814-1.977,7.096-0.712
		c0.842,0.468,16.967,9.6,31.209,31.135c0.48-1.5,1.516-2.796,2.949-3.581c2.157-1.189,4.819-1.002,6.783,0.486
		c1.447,1.09,33.705,25.799,49.864,65.481c11.281-6.985,22.103-13.977,31.596-20.608v-87.327c0-0.031,0-123.23,0-123.23
		c0-15.823,12.873-28.696,28.694-28.696h211.541c8.922,0,16.179-7.258,16.179-16.18v-20.825h-106.42
		c-3.456,0-6.258-2.802-6.258-6.258c0-3.456,2.802-6.258,6.258-6.258h24.642l-10.861-11.42h-40.461
		c-3.456,0-6.258-2.802-6.258-6.258c0-3.456,2.802-6.258,6.258-6.258h43.147c1.714,0,3.352,0.703,4.534,1.945l20.914,21.99h64.506
		v-66.853h-47.531c-3.456,0-6.258-2.802-6.258-6.258c0-3.456,2.802-6.258,6.258-6.258h47.531v-50.185
		C969.408,329.634,962.151,322.376,953.229,322.376z M535.063,95.392c0-3.456,2.802-6.258,6.258-6.258
		c3.456,0,6.258,2.802,6.258,6.258V154c0,3.456-2.802,6.258-6.258,6.258c-3.456,0-6.258-2.802-6.258-6.258V95.392z M548.134,201.262
		c0,3.456-2.802,6.258-6.258,6.258s-6.258-2.802-6.258-6.258v-20.275c0-3.456,2.802-6.258,6.258-6.258s6.258,2.802,6.258,6.258
		V201.262z M664.564,235.617c0,3.456-2.802,6.258-6.258,6.258s-6.258-2.802-6.258-6.258v-43.365c0-3.456,2.802-6.258,6.258-6.258
		s6.258,2.802,6.258,6.258V235.617z M515.881,815.915c0,3.456-2.802,6.258-6.258,6.258s-6.258-2.802-6.258-6.258v-41.824
		c0-3.456,2.802-6.258,6.258-6.258s6.258,2.802,6.258,6.258V815.915z M568.845,633.343c0,3.456-2.802,6.258-6.258,6.258
		s-6.258-2.802-6.258-6.258v-45.545c0-3.456,2.802-6.258,6.258-6.258s6.258,2.802,6.258,6.258V633.343z M683.93,656.953
		c0,3.456-2.802,6.258-6.258,6.258s-6.258-2.802-6.258-6.258v-41.824c0-3.456,2.802-6.258,6.258-6.258s6.258,2.802,6.258,6.258
		V656.953z M836.307,391.42h-58.604c-3.456,0-6.258-2.802-6.258-6.258c0-3.456,2.802-6.258,6.258-6.258h58.604
		c3.456,0,6.258,2.802,6.258,6.258C842.565,388.618,839.763,391.42,836.307,391.42z"/>
	<path fill="#7D8C62" d="M592.731,719.285c-0.594,0.219-1.208,0.316-1.823,0.35c21.655,16.696,46.96,39.675,70.896,69.732
		c2.924-1.739,5.848-3.491,8.764-5.253c-9.546-24.574-26.407-43.488-37.013-53.692c-0.333,2.42-0.84,4.922-1.592,7.306
		c-0.785,2.481-3.028,4.22-5.628,4.36c-2.567,0.159-5.017-1.344-6.065-3.725c-6.811-15.461-15.788-26.348-23.043-33.357
		c0.217,3.248,0.119,6.591-0.539,9.704C596.242,716.813,594.748,718.543,592.731,719.285z"/>
	<path fill="#B6C594" d="M725.509,1056.951c0,1.452-0.56,2.967-1.5,4.067c-30.086,35.2-100.443,61.908-146.74,76.467h59.931
		c18.006-7.782,55.819-26.503,77.535-45.283c6.25-5.405,13.021-11.713,15.534-19.842c1.861-6.019,3.3-14.297-0.4-19.558
		c-1.187-1.687-2.771-2.841-4.36-3.679V1056.951z"/>
	<path fill="#B6C594" d="M725.509,692.169c8.902,2.732,26.917,9.667,32.526,22.404c1.891,4.302,3.181,11.171-1.442,19.46
		c-4.433,7.948-15.255,18.037-33.834,31.242c-10.96,7.789-24.606,16.654-41.243,26.806c-0.085,0.053-0.168,0.107-0.256,0.157
		c-13.335,8.133-28.562,17.082-45.875,26.97c-7.187,4.104-16.078,8.836-26.373,14.318c-37.373,19.891-92.24,49.111-123.358,80.184
		c-0.286,0.365-0.61,0.692-0.97,0.985c-13.047,13.26-21.731,26.839-22.783,40.165c-0.835,10.589,3.311,20.514,12.592,30.105v-38.886
		c0-1.441,0.602-3.045,1.56-4.134c18.738-21.291,43.02-38.31,64.301-52.148c7.331-4.766,14.835-9.366,22.405-13.887
		c0.243-0.171,0.501-0.314,0.766-0.449c18.438-10.985,37.351-21.366,55.848-31.469c50.498-27.585,102.714-56.105,143.764-97.214
		c11.049-11.07,15.574-21.318,13.447-30.466c-3.125-13.43-20.748-26.438-51.076-37.852V692.169z"/>
	<path fill="#7D8C62" d="M750.224,675.466c4.15,2.059,7.958,4.166,11.442,6.321c14.552-10.903,33.153-17.17,46.289-20.465
		c-3.816-1.842-8.464-3.792-13.93-5.579c-2.441-0.801-4.149-3.01-4.302-5.573c-0.156-2.564,1.271-4.962,3.599-6.047
		c10.624-4.956,22.748-8.659,33.461-11.321c-0.886-0.092-1.797-0.183-2.732-0.266c-2.441-0.22-4.528-1.842-5.344-4.155
		c-0.813-2.31-0.205-4.883,1.561-6.585c9.548-9.198,17.287-18.29,23.123-25.844C824.075,607.018,791.695,629.943,750.224,675.466z"
		/>
	<path fill="#7D8C62" d="M801.347,609.657c-1.828-0.811-3.187-2.42-3.606-4.394c-0.657-3.112-0.755-6.458-0.538-9.706
		c-7.254,7.009-16.234,17.898-23.045,33.361c-1.048,2.383-3.547,3.89-6.065,3.725c-2.6-0.141-4.843-1.879-5.628-4.363
		c-0.691-2.188-1.173-4.476-1.506-6.71c-9.521,9.64-23.872,25.911-33.128,44.392c3.652,1.338,7.109,2.702,10.43,4.083
		C762.406,643.222,783.65,623.725,801.347,609.657z"/>
	<path fill="#383435" d="M610.135,411.578c-9.061,0-16.432,8.461-16.432,18.86s7.371,18.86,16.432,18.86
		c9.061,0,16.434-8.461,16.434-18.86S619.196,411.578,610.135,411.578z M610.135,436.783c-1.849,0-3.917-2.713-3.917-6.345
		c0-3.631,2.069-6.345,3.917-6.345c1.85,0,3.919,2.713,3.919,6.345C614.054,434.07,611.985,436.783,610.135,436.783z"/>
	<path fill="#383435" d="M953.229,309.861H741.688c-8.922,0-16.179-7.258-16.179-16.18V78.696c0-15.823-12.873-28.696-28.697-28.696
		H503.19c-15.824,0-28.697,12.873-28.697,28.696v132.563c-11.847-9.713-21.763-14.565-22.66-14.992
		c-1.712-0.816-3.718-0.773-5.414,0.064c-2.43,1.2-3.945,3.917-3.487,6.62c0.16,0.94,3.605,20.56,14.43,45.91
		c-9.254-1.636-16.025-1.778-21.612-1.642c-2.454,0.063-4.643,1.554-5.601,3.813c-0.958,2.26-0.507,4.87,1.155,6.678
		c0.151,0.165,12.393,13.469,27.426,28.91c-11.842-0.781-20.073-1.731-20.188-1.743c-1.807-0.221-3.618,0.377-4.959,1.607
		c-1.341,1.231-2.079,2.985-2.021,4.805c0.013,0.391,0.332,9.012,3.836,20.682c-18.532-17.21-35.913-22.324-36.826-22.583
		c-2.518-0.713-5.2,0.214-6.748,2.315c-1.545,2.104-1.622,4.947-0.194,7.132c1.074,1.642,3.08,5.127,4.73,9.063
		c-27.781-9.131-52.476-5.917-53.65-5.757c-3.438,0.471-5.984,4.07-5.278,7.467c0.018,0.087,0.053,0.168,0.075,0.254h-90.736
		c-15.823,0-28.696,12.873-28.696,28.696V501.45c0,15.823,12.873,28.696,28.696,28.696h185.885
		c-7.478,14.25-12.811,30.493-13.121,48.13c-0.599,34.254,17.92,66.432,54.956,95.694v233.302
		c-14.288,14.923-23.804,30.579-25.069,46.605c-1.372,17.404,7.076,33.504,25.069,47.899v119.53
		c0,15.821,12.873,28.694,28.697,28.694c0,0,135.287,0,135.338,0h58.284c15.824,0,28.697-12.873,28.697-28.694v-22.064
		c8.152-7.553,14.319-15.415,16.72-23.19c3.905-12.647,3.193-22.892-2.124-30.448c-4.146-5.897-10.141-8.624-14.596-9.889V794.714
		c16.401-11.812,32.071-24.661,46.483-39.093c14.309-14.33,19.952-28.508,16.781-42.144c-2.007-8.631-7.429-16.623-16.353-24.06
		c21.902-14.564,52.99-18.886,53.334-18.934c2.454-0.33,4.482-2.075,5.176-4.449c0.694-2.374-0.076-4.935-1.965-6.533
		c-0.309-0.263-5.674-4.736-16.023-9.674c21.453-7.19,44.079-10.196,44.357-10.233c2.832-0.37,5.054-2.609,5.402-5.442
		c0.351-2.836-1.265-5.546-3.923-6.588c-5.2-2.044-11.62-4.22-20.872-5.842c18.837-20.124,28.776-37.386,29.254-38.226
		c2.467-4.329-1.206-9.64-6.03-9.319c-1.179,0.112-25.953,2.625-50.905,17.852c0.706-4.201,1.855-8.05,2.524-9.897
		c0.892-2.454,0.168-5.203-1.818-6.898c-1.989-1.696-4.815-1.983-7.098-0.714c-0.84,0.466-16.967,9.602-31.206,31.135
		c-0.498-1.555-1.592-2.891-3.101-3.667c-2.252-1.158-4.98-0.849-6.911,0.793c-1.082,0.919-21.213,18.162-37.106,42.265v-98.723
		c0-8.922,7.257-16.18,16.179-16.18h211.541c15.821,0,28.694-12.873,28.694-28.696V338.556
		C981.923,322.734,969.05,309.861,953.229,309.861z M490.144,247.165c1.178,1.853,3.243,2.973,5.437,2.898
		c2.195-0.055,4.201-1.257,5.284-3.167c0.801-1.41,1.519-3.228,2.159-5.252c7.933,20.706,19.093,55.813,19.86,90.691
		c-0.164,0.09-0.344,0.179-0.505,0.269c-11.304-42.38-29.003-76.695-43.606-100.122C482.763,236.806,486.66,241.688,490.144,247.165
		z M667.386,501.727c4.248-2.091,7.446-4.305,9.382-7.458c0.452-0.738,0.978-1.511,1.531-2.331
		c4.217-6.262,11.779-17.493,3.615-33.565c6.154-7.275,18.446-24.543,16.258-44.271c-2.31-20.825-21.428-46.557-34.118-55.836
		c-0.858-0.628-1.688-1.166-2.506-1.664c2.246-3.413,5.245-7.859,8.708-12.728c8.496,8.924,15.131,17.734,20.615,25.043
		c3.99,5.317,7.434,9.907,10.642,13.235c0.978,1.014,2.12,2.102,3.358,3.279c8.852,8.41,19.87,18.877,11.913,40.872
		c-6.114,16.897-7.128,27.379-8.027,36.626c-0.678,6.98-1.262,13.007-4.097,20.823c-3.562,9.812-21.844,21.937-37.048,29.887
		C667.748,509.173,667.601,505.007,667.386,501.727z M685.733,415.482c1.601,14.433-7.816,28.036-12.873,34.182
		c-6.318-2.961-15.868-6.169-23.502-8.548c1.959-3.003,2.334-5.866,2.101-8.175c-0.449-4.458-3.303-7.998-6.536-10.431
		c2.093-5.87,0.544-10.121-0.84-12.421c-1.47-2.435-3.633-4.212-6.013-5.368c0.455-3.19,0.156-6.763-2.337-9.559
		c-2.661-2.984-6.316-3.554-9.68-3.274c-0.84-2.506-2.368-4.974-5.152-6.421c-5.344-2.777-10.832,0.223-14.899,2.924
		c-5.633-2.015-10.19-2.003-13.863,0.027c-4.123,2.279-5.734,6.284-6.501,9.817c-5.524,0.396-8.348,2.968-9.79,5.394
		c-2.226,3.749-1.736,8.039-0.498,11.658c-2.142,1.268-3.387,2.927-4.108,4.44c-1.777,3.722-0.995,7.701,0.403,10.952
		c-2.825,2.137-5.3,5.217-4.747,9.403c0.617,4.666,4.806,7.597,9.86,9.438c-0.797,2.861-0.234,5.226,0.678,7
		c1.87,3.633,5.498,5.327,9.177,5.972c0.235,1.326,0.782,2.643,1.803,3.841c1.829,2.15,4.122,2.878,6.687,2.898
		c0.142,3.855,1.7,6.592,4.666,8.177c3.379,1.804,7.191,1.028,10.636-0.851c1.309,1.937,3.201,3.459,5.966,3.873
		c0.376,0.057,0.874,0.13,1.485,0.13c2.875,0,8.216-1.658,14.776-14.715c3.99,0.541,7.242-0.435,9.649-2.924
		c2.58-2.666,3.237-6.325,3.003-9.966c10.678,3.325,20.724,6.924,24.335,9.047c6.514,10.743,2.518,16.675-1.705,22.945
		c-0.657,0.975-1.274,1.897-1.812,2.773c-1.011,1.644-7.724,4.397-12.628,6.407c-7.984,3.276-17.92,7.35-27.778,14.176
		c-3.563,2.467-5.738,2.166-7.064,1.723c-5.964-1.995-10.688-12.662-11.868-16.231c-0.79-2.414-2.959-4.113-5.494-4.298
		c-2.542-0.179-4.927,1.181-6.059,3.454c-3.845,7.737-11.643,19.043-16.278,20.156c-0.361,0.09-0.437,0.076-0.736-0.147
		c-9.814-7.286-14.944-16.591-14.987-16.669c-0.938-1.748-2.651-2.949-4.615-3.234c-0.33-0.047-32.915-5.236-30.978-21.382
		c2.586-21.579,9.613-40.392,9.683-40.58c0.616-1.632,0.523-3.448-0.258-5.008c-0.782-1.561-2.177-2.726-3.853-3.211
		c-2.611-0.756-4.194-2.043-5.135-4.169c-2.716-6.138-0.047-18.845,6.966-33.16c3.994-8.157,10.375-8.954,12.711-8.954
		c0.417,0,0.704,0.026,0.828,0.04c2.48,0.359,4.941-0.807,6.241-2.956c4.57-7.556,6.838-7.674,15.279-8.112
		c5.569-0.289,13.197-0.686,23.558-3.664c18.118-5.21,20.993,2.828,21.222,3.595c0.694,3.091,3.59,5.168,6.734,4.852
		c0.865-0.087,21.147-2.146,31.245-4.126C659.501,367.362,683.478,395.155,685.733,415.482z M630.703,446.312
		c0.956,2.188,1.726,4.866,2.011,6.748c-0.345-0.112-0.746-0.255-1.201-0.438c-3.153-1.268-6.728,0.209-8.076,3.323
		c-1.149,2.651-2.579,5.414-3.926,7.677c-0.66-1.917-2.227-3.427-4.235-3.987c-0.556-0.154-1.121-0.229-1.68-0.229
		c-1.708,0-3.366,0.701-4.557,1.969c-0.052-1.453-0.611-2.868-1.618-3.978c-1.528-1.682-3.845-2.403-6.058-1.89
		c0,0-1.083,0.255-1.166,0.273c-0.095-1.268-0.576-2.499-1.416-3.515c-1.476-1.786-3.815-2.609-6.08-2.145
		c-0.57,0.118-1.167,0.177-1.743,0.193c0.053-0.052,0.108-0.102,0.165-0.156c1.76-1.632,2.431-4.126,1.726-6.421
		s-2.658-3.984-5.029-4.349c-1.445-0.223-3.007-0.567-4.444-0.956c1.509-0.848,2.609-2.289,3.02-3.989
		c0.457-1.894,0.005-3.894-1.222-5.41c-0.686-0.843-1.505-2.191-1.997-3.276c0.365-0.034,0.811-0.057,1.376-0.057
		c2.399,0,4.588-1.372,5.633-3.532c1.047-2.162,0.762-4.731-0.729-6.612c-0.985-1.244-2.027-3.393-2.444-4.872
		c0.649,0.005,1.578,0.06,2.874,0.284c1.638,0.283,3.318-0.096,4.678-1.054c1.358-0.959,2.278-2.418,2.557-4.056
		c0.113-0.657,0.208-1.384,0.307-2.151c0.147-1.141,0.438-3.408,0.874-4.304c0.6-0.017,2.278,0.104,5.812,1.736
		c1.971,0.914,4.278,0.736,6.09-0.469l1.302-0.885c0.733-0.504,1.922-1.322,3.004-1.962c0.037,0.451,0.064,0.984,0.07,1.612
		c0.021,1.946,0.944,3.774,2.502,4.942c1.561,1.167,3.563,1.538,5.448,1.019l0.535-0.153c0.477-0.136,1.329-0.38,2.2-0.582
		c-0.199,0.629-0.474,1.401-0.859,2.333c-0.852,2.059-0.538,4.415,0.816,6.187c1.351,1.769,3.547,2.695,5.763,2.414
		c0.626-0.066,2.032,0.38,2.38,0.958c0.226,0.377,0.04,2.079-1.974,4.941c-1.17,1.662-1.461,3.789-0.779,5.703
		c0.681,1.916,2.252,3.379,4.207,3.926c1.687,0.472,3.975,2.29,4.195,2.919c0.106,0.302-0.897,1.168-1.055,1.315
		c-1.513,1.41-3.409,2.146-5.077,3.314C630.49,440.345,629.527,443.617,630.703,446.312z M654.177,522.964
		c-0.01,0.053-0.016,0.106-0.024,0.16c-0.717,4.468-1.839,7.851-3.387,9.043c-2.622,2.02-5.213,4.47-7.957,7.063
		c-6.087,5.757-13.658,12.926-18.745,11.247c-3.251-1.071-7.312-2.023-11.611-3.029c-6.163-1.442-20.593-4.822-22.191-7.704
		c-0.814-5.851-1.612-13.109-2.077-17.526c4.678-3.28,8.865-8.401,12.064-13.138c3.237,5.202,7.978,10.651,14.379,12.806
		c4.128,1.39,10.633,1.943,18.195-3.292c7.538-5.22,15.447-8.753,22.245-11.581C655.192,512.704,654.897,518.389,654.177,522.964z
		 M648.077,354.367c-7.027,1.205-17.527,2.424-23.39,3.066c-1.372-2.105-3.483-4.466-6.676-6.357
		c-6.939-4.113-16.307-4.514-27.828-1.205c-8.986,2.583-15.51,2.923-20.751,3.195c-8.534,0.445-16.002,0.831-23.358,11.113
		c-5.772,0.431-16.043,3.103-22.291,15.863c-5.205,10.624-13.056,30.43-7.173,43.729c1.552,3.509,3.958,6.346,7.089,8.401
		c-2.437,7.517-6.574,21.891-8.506,38.013c-2.564,21.381,21.828,31.634,38.651,34.768c2.591,3.994,8.212,11.611,16.898,18.058
		c1.611,1.196,3.363,1.959,5.192,2.35c0.397,3.705,0.95,8.616,1.546,13.208c-2.786,2.299-10.309,5.964-25.835-1.773
		c-19.758-9.846-23.103-14.935-31.18-27.231c-1.937-2.947-4.104-6.242-6.759-10.02c-0.805-1.145-1.662-2.22-2.502-3.321
		c-0.069-0.108-0.116-0.225-0.193-0.33c-0.105-0.145-0.235-0.258-0.35-0.391c-1.922-2.486-3.877-4.912-5.813-7.246
		c-4.458-5.375-8.35-10.098-10.888-14.858c-0.128-0.31-0.296-0.606-0.477-0.898c-4.097-8.27-3.901-16.781,4.978-29.135
		c1.948-2.71,1.372-6.513-1.239-8.592c-0.674-0.536-16.341-13.456-1.425-40.565c5.443-9.892,9.008-17.875,11.871-24.288
		c6.598-14.775,9.33-20.892,24.297-28.204c0.108-0.053,0.199-0.131,0.304-0.19c0.219-0.123,0.433-0.25,0.635-0.398
		c0.145-0.106,0.279-0.223,0.415-0.342c0.183-0.16,0.357-0.324,0.52-0.504c0.057-0.063,0.129-0.112,0.183-0.178
		c0.917-1.098,22.791-26.694,54.041-10.713c1.638,0.84,3.569,0.911,5.268,0.2c18.908-7.922,50.143-6.745,67.653,5.735
		C655.042,343.596,650.352,350.798,648.077,354.367z M474.268,299.923c2.577,0.07,4.925-1.409,5.946-3.766
		c1.022-2.357,0.5-5.1-1.318-6.915c-10.402-10.396-20.576-21.028-27.833-28.716c4.398,0.603,9.5,1.607,15.624,3.23
		c2.373,0.628,4.889-0.182,6.441-2.078c1.555-1.894,1.861-4.521,0.784-6.722c-3.505-7.16-6.388-14.04-8.78-20.386
		c15.095,23.464,34.81,60.214,46.301,105.751c-3.503,3.231-6.114,6.694-8.39,10.574c-19.721-22.558-47.201-37.871-55.551-42.22
		c-1.224-4.032-2.038-7.674-2.542-10.577C451.726,298.716,462.283,299.53,474.268,299.923z M408.718,323.284
		c1.794-1.186,2.854-3.208,2.806-5.359c-0.07-3.199-0.747-6.497-1.71-9.626c8.636,5.141,19.841,13.684,30.069,27.27
		c1.567,2.082,4.253,2.973,6.757,2.243c2.499-0.732,4.284-2.935,4.481-5.532c0.183-2.417,0.115-4.892-0.098-7.257
		c12.42,7.406,32.282,20.886,45.951,38.147c-0.245,0.547-0.486,1.085-0.738,1.647c-1.021,2.285-2.183,4.85-3.441,7.557
		c-31.967-22.308-61.275-37.858-85.232-48.525C407.961,323.692,408.355,323.523,408.718,323.284z M487.185,383.731
		c-0.764,1.459-1.503,2.893-2.356,4.444c-1.321,2.401-2.4,4.722-3.361,7.001c-23.655-12.149-52.357-16.925-69.004-18.747
		c3.581-3.051,8.288-6.608,14.207-10.207c2.195-1.335,3.352-3.876,2.916-6.407c-0.435-2.531-2.374-4.54-4.887-5.064
		c-11.476-2.399-24.12-3.236-35.16-3.378c0.84-0.293,1.705-0.588,2.596-0.883c2.327-0.77,3.989-2.828,4.253-5.263
		c0.264-2.437-0.917-4.803-3.022-6.056c-9.768-5.808-18.206-11.835-25.091-17.234C394.391,330.809,437.818,349.045,487.185,383.731z
		 M246.772,517.63c-8.922,0-16.18-7.258-16.18-16.18v-19.691h44.745c3.456,0,6.258-2.802,6.258-6.258
		c0-3.456-2.802-6.258-6.258-6.258h-44.745v-75.129h33.737l9.904,20.024c1.054,2.133,3.228,3.483,5.608,3.483h54.631
		c3.456,0,6.258-2.802,6.258-6.258c0-3.456-2.802-6.258-6.258-6.258h-50.744l-5.437-10.992h39.85c3.456,0,6.258-2.802,6.258-6.258
		s-2.802-6.258-6.258-6.258h-87.548v-43.043c0-8.922,7.258-16.18,16.18-16.18h102.435c6.354,5.634,15.497,13.096,26.971,20.748
		c-8.638,3.693-14.388,7.277-18.985,10.453c-2.35,1.624-3.301,4.631-2.315,7.31c0.985,2.68,3.67,4.34,6.502,4.064
		c0.28-0.029,22.99-2.267,45.521-0.167c-8.948,7.171-13.149,12.751-13.391,13.074c-1.386,1.867-1.622,4.346-0.616,6.443
		c1.008,2.095,3.094,3.459,5.416,3.541c0.485,0.018,46.89,1.889,79.432,19.494c-2.812,15.167,2.075,26.592,7.573,33.198
		c-8.096,13.221-8.211,23.942-4.803,33.236c-7.975,6.325-26.045,21.938-40.473,43.859H246.772z M432.05,578.549
		c0.756-44.91,39.959-81.474,54.458-93.478c2.683,3.911,5.74,7.599,8.706,11.174c0.632,0.761,1.264,1.548,1.9,2.321
		c-13.312,10.944-47.595,42.628-48.719,79.525c-0.597,19.597,8.198,37.414,26.099,53.012v26.626
		C445.882,632.855,431.583,606.268,432.05,578.549z M474.492,546.326v67.164c-9.388-10.827-13.96-22.55-13.589-34.987
		c0.384-12.879,5.868-25.319,13.018-36.211C474.258,543.602,474.492,544.942,474.492,546.326z M503.19,1137.485
		c-8.922,0-16.182-7.257-16.182-16.179V948.544c9.663-10.676,20.853-20.27,32.325-28.915c28.779,32.451,68.774,39.523,70.538,39.821
		c2.325,0.388,4.69-0.568,6.09-2.478c0.904-1.237,1.306-2.738,1.184-4.214c21.379,14.471,39.77,16.766,40.724,16.875
		c0.241,0.031,0.48,0.043,0.718,0.043c2.325,0,4.485-1.299,5.564-3.404c1.192-2.319,0.816-5.139-0.938-7.067
		c-1.323-1.457-3.856-4.58-6.114-8.195c28.87,4.556,52.733-2.569,53.865-2.918c2.186-0.674,3.782-2.572,4.226-4.796
		c0.488-2.444-0.477-4.387-2.215-6.127c-0.752-0.584-16.527-12.748-41.616-24.166c7.932-5.029,13.035-9.49,17.065-13.362
		c2.059-1.98,2.518-5.103,1.112-7.59c-1.402-2.487-4.317-3.709-7.07-2.967c-0.272,0.073-22.308,5.928-44.904,7.465
		c7.682-8.513,10.936-14.697,11.122-15.057c1.137-2.194,0.871-4.852-0.672-6.783c-1.546-1.931-4.091-2.774-6.478-2.145
		c-0.219,0.06-16.821,4.328-35.439,4.188c13.074-7.461,26.285-14.678,39.277-21.775c29.42-16.071,59.404-32.469,87.622-51.522
		v251.118c-43.079,47.681-171.038,80.285-181.608,82.912H503.19z M595.967,905.09c0.834,2.429,3.069,4.1,5.636,4.217
		c11.718,0.532,24.328-0.672,35.248-2.304c-0.782,0.425-1.589,0.856-2.423,1.289c-2.172,1.134-3.483,3.431-3.355,5.879
		c0.128,2.447,1.674,4.592,3.954,5.491c10.485,4.134,19.718,8.691,27.342,12.888c-24.449-4.235-63.692-13.852-110.068-35.523
		c5.03-3.197,10.117-6.348,15.268-9.441c14.643,2.686,29.992,1.691,41.105,0.143c-2.829,3.165-6.412,6.771-10.858,10.569
		C595.864,899.969,595.131,902.661,595.967,905.09z M623.864,936.822c-0.516,0.259-1.005,0.575-1.441,0.977
		c-1.583,1.458-2.304,3.627-1.913,5.741c0.584,3.147,1.781,6.297,3.233,9.234c-9.347-3.691-21.78-10.328-34.054-22.1
		c-1.879-1.806-4.676-2.261-7.029-1.13c-2.35,1.124-3.758,3.584-3.537,6.178c0.244,2.866,0.854,5.75,1.6,8.418
		c-12.849-4.137-34.282-13.347-51.215-31.928c3.522-2.476,7.026-4.882,10.485-7.188C571.761,920.464,600.385,930.42,623.864,936.822
		z M712.994,1121.306c0,8.922-7.26,16.179-16.182,16.179h-30.265c14.185-7.186,31.712-16.977,46.447-27.932V1121.306z
		 M729.869,1052.802c3.7,5.262,2.261,13.539,0.4,19.558c-2.513,8.129-9.284,14.437-15.534,19.842
		c-21.716,18.78-59.529,37.501-77.535,45.283h-59.931c46.297-14.559,116.653-41.267,146.74-76.467c0.94-1.1,1.5-2.615,1.5-4.067
		v-7.828C727.099,1049.961,728.683,1051.115,729.869,1052.802z M843.392,595.953c-5.836,7.554-13.574,16.646-23.123,25.844
		c-1.766,1.702-2.374,4.275-1.561,6.585c0.816,2.313,2.903,3.935,5.344,4.155c0.935,0.083,1.846,0.174,2.732,0.266
		c-10.713,2.661-22.837,6.365-33.461,11.321c-2.328,1.085-3.755,3.483-3.599,6.047c0.153,2.564,1.861,4.773,4.302,5.573
		c5.466,1.787,10.114,3.737,13.93,5.579c-13.136,3.295-31.737,9.561-46.289,20.465c-3.484-2.155-7.293-4.262-11.442-6.321
		C791.695,629.943,824.075,607.018,843.392,595.953z M760.959,621.57c0.333,2.234,0.816,4.522,1.506,6.71
		c0.785,2.484,3.028,4.223,5.628,4.363c2.518,0.165,5.017-1.341,6.065-3.725c6.811-15.464,15.791-26.352,23.045-33.361
		c-0.217,3.248-0.119,6.594,0.538,9.706c0.418,1.974,1.778,3.583,3.606,4.394c-17.697,14.068-38.941,33.565-63.085,60.388
		c-3.321-1.382-6.778-2.745-10.43-4.083C737.087,647.481,751.437,631.21,760.959,621.57z M776.585,716.312
		c2.127,9.148-2.399,19.396-13.447,30.466c-41.051,41.109-93.266,69.629-143.764,97.214c-18.497,10.104-37.411,20.484-55.848,31.469
		c-0.265,0.135-0.523,0.278-0.766,0.449c-7.57,4.521-15.074,9.12-22.405,13.887c-21.281,13.838-45.564,30.857-64.301,52.148
		c-0.958,1.089-1.56,2.693-1.56,4.134v38.886c-9.28-9.59-13.427-19.516-12.592-30.105c1.051-13.326,9.736-26.905,22.783-40.165
		c0.359-0.293,0.683-0.62,0.97-0.985c31.118-31.072,85.985-60.293,123.358-80.184c10.295-5.482,19.187-10.215,26.373-14.318
		c17.313-9.888,32.54-18.837,45.875-26.97c0.088-0.049,0.171-0.104,0.256-0.157c16.636-10.152,30.283-19.017,41.243-26.806
		c18.58-13.205,29.401-23.294,33.834-31.242c4.623-8.29,3.334-15.158,1.442-19.46c-5.609-12.737-23.624-19.672-32.526-22.404
		v-13.709C755.837,689.874,773.46,702.882,776.585,716.312z M601.105,753.568c-10.625-4.956-22.745-8.656-33.461-11.318
		c0.886-0.095,1.795-0.183,2.73-0.266c2.441-0.22,4.53-1.842,5.343-4.155c0.814-2.31,0.205-4.883-1.56-6.585
		c-7.982-7.692-14.696-15.305-20.098-22.013c23.97,15.183,62.129,43.384,96.859,86.556c-3.383,1.979-6.732,3.923-10.036,5.832
		c-18.8-16.186-41.564-25.448-55.958-30.107c4.062-2.044,9.22-4.281,15.481-6.325c2.441-0.801,4.146-3.01,4.302-5.573
		C604.861,757.051,603.433,754.652,601.105,753.568z M597.226,705.007c7.255,7.009,16.232,17.896,23.043,33.357
		c1.048,2.38,3.499,3.883,6.065,3.725c2.6-0.141,4.843-1.879,5.628-4.36c0.752-2.383,1.259-4.886,1.592-7.306
		c10.606,10.204,27.468,29.118,37.013,53.692c-2.915,1.762-5.84,3.514-8.764,5.253c-23.936-30.057-49.241-53.036-70.896-69.732
		c0.615-0.034,1.229-0.13,1.823-0.35c2.017-0.742,3.511-2.472,3.955-4.574C597.345,711.597,597.443,708.255,597.226,705.007z
		 M725.509,747.73v-42.38c8.637,3.12,18.441,8.279,21.074,14.274c0.703,1.601,1.372,4.201-0.923,8.314
		C742.705,733.238,735.427,740.074,725.509,747.73z M969.408,388.741h-47.531c-3.456,0-6.258,2.802-6.258,6.258
		c0,3.456,2.802,6.258,6.258,6.258h47.531v66.853h-64.506l-20.914-21.99c-1.182-1.242-2.82-1.945-4.534-1.945h-43.147
		c-3.456,0-6.258,2.802-6.258,6.258c0,3.456,2.802,6.258,6.258,6.258h40.461l10.861,11.42h-24.642c-3.456,0-6.258,2.802-6.258,6.258
		c0,3.456,2.802,6.258,6.258,6.258h106.42v20.825c0,8.922-7.257,16.18-16.179,16.18H741.688c-15.821,0-28.694,12.873-28.694,28.696
		c0,0,0,123.2,0,123.23v87.327c-9.493,6.631-20.314,13.623-31.596,20.608c-16.159-39.682-48.416-64.391-49.864-65.481
		c-1.965-1.488-4.626-1.674-6.783-0.486c-1.433,0.785-2.469,2.081-2.949,3.581c-14.242-21.535-30.367-30.668-31.209-31.135
		c-2.282-1.265-5.115-0.978-7.096,0.712c-1.986,1.696-2.71,4.446-1.818,6.899c0.671,1.846,1.827,5.695,2.535,9.903
		c-24.959-15.235-49.737-17.746-50.917-17.859c-2.937-0.264-5.812,1.717-6.599,4.559c-0.411,1.483-0.197,3.421,0.573,4.772
		c0.472,0.828,10.412,18.086,29.249,38.215c-9.254,1.622-15.672,3.798-20.871,5.842c-2.658,1.042-4.273,3.755-3.923,6.588
		c0.348,2.835,2.573,5.075,5.405,5.442c0.278,0.037,22.883,3.034,44.355,10.23c-10.351,4.938-15.716,9.414-16.025,9.674
		c-1.827,1.543-2.614,3.994-2.027,6.313c0.587,2.322,2.446,4.104,4.786,4.592c0.371,0.076,34.485,7.409,61.063,28.43
		c-0.036,0.02-0.073,0.042-0.109,0.062c-7.022,4.009-15.837,8.702-26.045,14.135c-36.174,19.254-83.547,44.489-116.123,72.925
		V546.326c0-5.577-1.594-10.932-4.557-15.526c8.291-10.011,17.004-17.855,22.271-22.247c2.004,2.903,3.728,5.519,5.282,7.884
		c8.562,13.03,13.276,20.208,36.058,31.56c8.956,4.463,16.316,6.062,22.27,6.062c6.507,0,11.321-1.913,14.699-4.082
		c6.047,4.845,16.423,7.28,26.568,9.655c4.021,0.943,7.822,1.832,10.548,2.73c1.913,0.631,3.786,0.915,5.619,0.915
		c9.826-0.002,18.474-8.177,25.642-14.954c2.509-2.37,4.877-4.609,6.994-6.242c3.757-2.893,6.042-7.903,7.414-13.592
		c10.757-5.047,43.856-21.855,50.61-40.469c3.376-9.302,4.064-16.385,4.791-23.883c0.865-8.928,1.763-18.162,7.339-33.578
		c10.74-29.689-6.044-45.635-15.064-54.201c-1.094-1.04-2.105-1.998-2.97-2.894c-2.67-2.77-5.9-7.073-9.637-12.057
		c-6.805-9.069-15.271-20.354-27.02-31.678c-19.797-19.083-57.889-21.83-82.691-12.734c-22.971-10.515-43.278-3.487-56.194,5.587
		c-3.683-53.386-27.467-102.828-28.562-105.076c-1.219-2.502-3.943-3.896-6.685-3.425c-2.742,0.471-4.844,2.696-5.158,5.462
		c-0.333,2.938-0.885,6.676-1.555,10.242c-1.968-2.429-3.985-4.693-6.012-6.847V78.696c0-8.922,7.26-16.18,16.182-16.18h128.821
		v88.623c0,3.456,2.802,6.258,6.258,6.258s6.258-2.802,6.258-6.258V62.515h52.286c8.922,0,16.182,7.258,16.182,16.18V293.68
		c0,15.823,12.873,28.696,28.694,28.696h211.541c8.922,0,16.179,7.258,16.179,16.18V388.741z"/>
	<path fill="#383435" d="M447.653,467.081c0-3.456-2.802-6.258-6.258-6.258h-60.222c-3.456,0-6.258,2.802-6.258,6.258
		c0,3.456,2.802,6.258,6.258,6.258h60.222C444.851,473.339,447.653,470.537,447.653,467.081z"/>
	<path fill="#383435" d="M541.321,160.258c3.456,0,6.258-2.802,6.258-6.258V95.392c0-3.456-2.802-6.258-6.258-6.258
		c-3.456,0-6.258,2.802-6.258,6.258V154C535.063,157.456,537.865,160.258,541.321,160.258z"/>
	<path fill="#383435" d="M541.877,174.73c-3.456,0-6.258,2.802-6.258,6.258v20.275c0,3.456,2.802,6.258,6.258,6.258
		s6.258-2.802,6.258-6.258v-20.275C548.134,177.532,545.333,174.73,541.877,174.73z"/>
	<path fill="#383435" d="M658.307,185.994c-3.456,0-6.258,2.802-6.258,6.258v43.365c0,3.456,2.802,6.258,6.258,6.258
		s6.258-2.802,6.258-6.258v-43.365C664.564,188.796,661.762,185.994,658.307,185.994z"/>
	<path fill="#383435" d="M836.307,378.904h-58.604c-3.456,0-6.258,2.802-6.258,6.258c0,3.456,2.802,6.258,6.258,6.258h58.604
		c3.456,0,6.258-2.802,6.258-6.258C842.565,381.706,839.763,378.904,836.307,378.904z"/>
	<path fill="#383435" d="M562.587,581.54c-3.456,0-6.258,2.802-6.258,6.258v45.545c0,3.456,2.802,6.258,6.258,6.258
		s6.258-2.802,6.258-6.258v-45.545C568.845,584.342,566.043,581.54,562.587,581.54z"/>
	<path fill="#383435" d="M509.623,767.834c-3.456,0-6.258,2.802-6.258,6.258v41.824c0,3.456,2.802,6.258,6.258,6.258
		s6.258-2.802,6.258-6.258v-41.824C515.881,770.636,513.079,767.834,509.623,767.834z"/>
	<path fill="#383435" d="M677.672,608.872c-3.456,0-6.258,2.802-6.258,6.258v41.824c0,3.456,2.802,6.258,6.258,6.258
		s6.258-2.802,6.258-6.258v-41.824C683.93,611.674,681.128,608.872,677.672,608.872z"/>
	<path fill="#383435" d="M529.606,969.979c-3.456,0-6.258,2.802-6.258,6.258v111.367c0,3.456,2.802,6.258,6.258,6.258
		s6.258-2.802,6.258-6.258V976.237C535.864,972.781,533.062,969.979,529.606,969.979z"/>
	<path fill="#383435" d="M587.213,1009.753c-3.456,0-6.258,2.802-6.258,6.258v32.455c0,3.456,2.802,6.258,6.258,6.258
		c3.456,0,6.258-2.802,6.258-6.258v-32.455C593.47,1012.555,590.669,1009.753,587.213,1009.753z"/>
	<path fill="#383435" d="M671.821,990.228c-3.456,0-6.258,2.802-6.258,6.258v51.98c0,3.456,2.802,6.258,6.258,6.258
		c3.456,0,6.258-2.802,6.258-6.258v-51.98C678.079,993.03,675.277,990.228,671.821,990.228z"/>
</g>
</svg>
